#!OML:ASF H:\Terrain\Walking\May29\JustinRory\Justin.ASF
:FULLY-SPECIFIED
:DEGREES
1329
root 11.045140718562875 17.85097844311377 13.136137724550897 -175.13107185628743 -121.85885628742516 -137.28101197604792 
lowerback 3.326634910179641 -2.0481784431137724 -6.00436748502994 
upperback 1.7053969461077845 -2.936187245508982 0.3229044610778443 
thorax 0.2583802275449102 -1.5337347904191616 3.7824191616766467 
lowerneck -14.132623113772455 -3.984945329341317 -10.740938263473055 
upperneck 22.903465868263474 -3.6100384610778438 1.1427038562874252 
head 10.216991017964073 -2.6992489221556886 1.7205128143712574 
rclavicle 1.1623362275449102e-13 -1.5508759281437126e-14 
rhumerus -33.58056526946108 -18.10853473053892 -66.15194491017964 
rradius 30.546100598802397 
rwrist -17.426490419161677 
rhand -20.793368263473052 22.90728502994012 
rfingers 7.12502 
rthumb 5.571927065868263 -6.952087305389222 
lclavicle 1.1623362275449102e-13 -1.5508759281437126e-14 
lhumerus -31.672255089820357 14.122104191616767 68.69996526946107 
lradius 28.68936766467066 
lwrist -5.214417365269461 
lhand -4.638523892215569 41.069081437125746 
lfingers 7.12502 
lthumb 21.13928982035928 69.92118982035927 
rfemur -29.832299401197602 -3.728316467065868 23.315562874251498 
rtibia 17.889298203592816 
rfoot -5.133126646706587 1.7367263473053896 
rtoes -2.8470465868263473 
lfemur 2.385251976047904 -5.543696227544911 -26.706928742514968 
ltibia 17.780798802395207 
lfoot -14.001062275449101 -15.391092814371257 
ltoes 24.383711377245508 
1330
root 11.048001397205589 17.850591417165667 13.118826686626747 -175.09713972055889 -121.74328722554891 -136.59657884231538 
lowerback 3.3310439920159682 -2.0506680838323352 -6.021645109780439 
upperback 1.7079057285429142 -2.9406068662674647 0.3244209520958084 
thorax 0.26064099800399204 -1.5364248702594812 3.7939128143712573 
lowerneck -14.09845183233533 -4.008240918163672 -10.754399401197604 
upperneck 22.8965502994012 -3.6559172854291413 1.176986387225549 
head 10.216865868263474 -2.71988123752495 1.729209361277445 
rclavicle 1.1607243313373254e-13 -1.5512131936127746e-14 
rhumerus -33.5793880239521 -18.11237864271457 -66.16097065868263 
rradius 30.553662275449103 
rwrist -17.42310359281437 
rhand -20.765702734530937 22.907076447105787 
rfingers 7.12502 
rthumb 5.598608183632734 -6.950906427145709 
lclavicle 1.1607243313373254e-13 -1.5512131936127746e-14 
lhumerus -31.653262674650698 14.105945928143713 68.73055469061876 
lradius 28.688170459081835 
lwrist -5.223562654690619 
lhand -4.625054790419162 41.06553612774451 
lfingers 7.12502 
lthumb 21.152207984031936 69.9159746506986 
rfemur -29.82007105788423 -3.733045908183633 23.277662255489023 
rtibia 17.941913173652694 
rfoot -5.156837924151696 1.7130901197604793 
rtoes -2.82789502994012 
lfemur 2.3553121756487028 -5.508954331337326 -26.701989221556886 
ltibia 17.80874211576846 
lfoot -14.013143313373252 -15.336432694610778 
ltoes 24.323353233532934 
1331
root 11.050862075848304 17.850204391217563 13.101515648702595 -175.06320758483034 -121.62771816367265 -135.91214570858284 
lowerback 3.335453073852295 -2.053157724550898 -6.038922734530939 
upperback 1.710414510978044 -2.945026487025948 0.3259374431137725 
thorax 0.26290176846307384 -1.5391149500998005 3.8054064670658683 
lowerneck -14.064280550898204 -4.031536506986027 -10.767860538922156 
upperneck 22.889634730538923 -3.701796109780439 1.2112689181636724 
head 10.216740718562875 -2.7405135528942117 1.7379059081836328 
rclavicle 1.1591124351297405e-13 -1.5515504590818364e-14 
rhumerus -33.578210778443115 -18.11622255489022 -66.16999640718562 
rradius 30.56122395209581 
rwrist -17.419716766467065 
rhand -20.73803720558882 22.906867864271454 
rfingers 7.12502 
rthumb 5.625289301397205 -6.949725548902196 
lclavicle 1.1591124351297405e-13 -1.5515504590818364e-14 
lhumerus -31.634270259481035 14.08978766467066 68.76114411177645 
lradius 28.68697325349301 
lwrist -5.232707944111777 
lhand -4.611585688622755 41.06199081836327 
lfingers 7.12502 
lthumb 21.16512614770459 69.91075948103793 
rfemur -29.807842714570857 -3.737775349301397 23.23976163672655 
rtibia 17.994528143712575 
rfoot -5.180549201596806 1.689453892215569 
rtoes -2.8087434730538923 
lfemur 2.3253723752495015 -5.474212435129741 -26.697049700598804 
ltibia 17.836685429141717 
lfoot -14.025224351297405 -15.281772574850299 
ltoes 24.262995089820357 
1332
root 11.053722754491018 17.84981736526946 13.084204610778443 -175.0292754491018 -121.51214910179641 -135.2277125748503 
lowerback 3.339862155688623 -2.0556473652694613 -6.056200359281437 
upperback 1.7129232934131737 -2.949446107784431 0.3274539341317365 
thorax 0.2651625389221557 -1.5418050299401198 3.816900119760479 
lowerneck -14.030109269461079 -4.054832095808383 -10.781321676646707 
upperneck 22.882719161676647 -3.747674934131736 1.2455514491017963 
head 10.216615568862276 -2.761145868263473 1.7466024550898203 
rclavicle 1.1575005389221556e-13 -1.5518877245508982e-14 
rhumerus -33.57703353293413 -18.120066467065868 -66.17902215568863 
rradius 30.568785628742518 
rwrist -17.41632994011976 
rhand -20.710371676646705 22.906659281437125 
rfingers 7.12502 
rthumb 5.651970419161676 -6.948544670658682 
lclavicle 1.1575005389221556e-13 -1.5518877245508982e-14 
lhumerus -31.615277844311375 14.073629401197605 68.79173353293413 
lradius 28.68577604790419 
lwrist -5.241853233532934 
lhand -4.598116586826348 41.05844550898203 
lfingers 7.12502 
lthumb 21.178044311377246 69.90554431137724 
rfemur -29.795614371257486 -3.7425047904191615 23.201861017964074 
rtibia 18.047143113772457 
rfoot -5.204260479041916 1.665817664670659 
rtoes -2.789591916167665 
lfemur 2.2954325748502997 -5.439470538922157 -26.692110179640718 
ltibia 17.86462874251497 
lfoot -14.037305389221556 -15.22711245508982 
ltoes 24.202636946107784 
1333
root 11.056583433133733 17.849430339321355 13.06689357285429 -174.99534331337327 -121.39658003992017 -134.54327944111776 
lowerback 3.34427123752495 -2.058137005988024 -6.073477984031936 
upperback 1.7154320758483035 -2.953865728542914 0.3289704251497006 
thorax 0.26742330938123754 -1.5444951097804391 3.82839377245509 
lowerneck -13.995937988023952 -4.078127684630738 -10.794782814371258 
upperneck 22.87580359281437 -3.7935537584830334 1.27983398003992 
head 10.216490419161678 -2.781778183632735 1.755299001996008 
rclavicle 1.155888642714571e-13 -1.5522249900199602e-14 
rhumerus -33.575856287425154 -18.12391037924152 -66.18804790419162 
rradius 30.576347305389223 
rwrist -17.412943113772457 
rhand -20.68270614770459 22.906450698602793 
rfingers 7.12502 
rthumb 5.678651536926147 -6.94736379241517 
lclavicle 1.155888642714571e-13 -1.5522249900199602e-14 
lhumerus -31.596285429141716 14.057471137724551 68.82232295409182 
lradius 28.684578842315368 
lwrist -5.250998522954092 
lhand -4.58464748502994 41.054900199600795 
lfingers 7.12502 
lthumb 21.1909624750499 69.90032914171657 
rfemur -29.78338602794411 -3.7472342315369263 23.1639603992016 
rtibia 18.099758083832334 
rfoot -5.227971756487026 1.6421814371257488 
rtoes -2.7704403592814373 
lfemur 2.265492774451098 -5.404728642714572 -26.687170658682636 
ltibia 17.892572055888223 
lfoot -14.049386427145707 -15.172452335329341 
ltoes 24.142278802395207 
